<svg width="453" height="499" viewBox="0 0 453 499" fill="none" xmlns="http://www.w3.org/2000/svg">
<g clip-path="url(#clip0_35_19)">
<rect width="74.9441" height="511.142" rx="36" transform="matrix(-0.919242 -0.393692 -0.393692 0.919242 270.125 29.5049)" fill="#2B6CB2"/>
<rect x="183.193" y="29.5049" width="74.9441" height="511.142" rx="36" transform="rotate(-23.1844 183.193 29.5049)" fill="#2B6CB2"/>
<path d="M227.973 130.251C167.963 130.251 119.91 157.598 84.9295 190.146C50.1712 222.397 26.9248 261.039 15.9329 287.568C13.482 293.439 13.482 299.978 15.9329 305.849C26.9248 332.378 50.1712 371.02 84.9295 403.271C119.91 435.819 167.963 463.166 227.973 463.166C287.983 463.166 336.035 435.819 371.016 403.271C405.775 370.945 429.021 332.378 440.087 305.849C442.538 299.978 442.538 293.439 440.087 287.568C429.021 261.039 405.775 222.397 371.016 190.146C336.035 157.598 287.983 130.251 227.973 130.251Z" fill="white"/>
<path d="M157.853 296.576C195.611 296.576 226.309 265.819 226.309 227.989C226.309 220.38 225.026 213.093 222.779 206.234C220.854 200.233 224.491 193.481 230.695 193.695C274.336 195.517 313.591 225.417 325.464 269.891C340.118 324.761 307.601 381.238 252.836 395.92C198.071 410.601 141.701 378.023 127.047 323.153C125.015 315.759 123.945 308.364 123.624 300.97C123.41 294.754 130.256 291.11 136.139 293.039C142.985 295.29 150.258 296.576 157.853 296.576Z" fill="#0C0D2B"/>
</g>
<defs>
<clipPath id="clip0_35_19">
<rect width="453" height="499" fill="white"/>
</clipPath>
</defs>
</svg>
