<svg width="800" height="800" viewBox="0 0 800 800" fill="none" xmlns="http://www.w3.org/2000/svg">
<g clip-path="url(#clip0_40_25)">
<path d="M634.716 696.947C781.722 580.252 745.349 351.408 561.971 298.365C552.878 295.334 542.27 293.818 533.176 292.303C505.897 415.06 416.481 534.786 308.879 545.395C211.886 554.488 183.091 455.979 237.65 390.811C302.817 313.52 398.295 258.961 499.832 254.414C510.441 175.607 489.224 98.3157 411.932 55.8811C281.6 -15.3484 105.797 80.1294 54.2689 207.433C49.7224 221.073 28.5051 215.011 33.0516 201.371C83.0663 25.5707 328.581 -65.3607 474.069 54.3656C530.145 101.347 548.329 177.123 539.236 255.93C642.292 266.539 724.13 346.861 755.956 442.337C792.328 552.97 739.287 654.51 652.9 719.677C639.26 730.288 622.592 707.553 634.716 696.947ZM328.581 357.47C295.239 381.718 257.351 413.544 243.712 454.463C230.072 493.864 284.631 507.507 308.879 509.02C339.19 510.535 366.469 489.318 387.686 469.616C434.665 428.7 475.587 360.501 493.77 290.787C434.665 295.334 377.078 324.128 328.581 357.47Z" fill="#123458"/>
<path d="M578.642 781.814C578.642 739.379 581.673 695.429 592.282 654.51C596.828 637.842 619.561 645.417 616.53 662.09C610.468 695.431 611.984 730.288 613.499 763.63C633.198 762.114 654.416 760.599 674.117 757.568C689.273 754.537 712.006 743.928 727.161 753.021C734.741 757.568 734.741 765.145 731.707 772.723C724.13 790.909 692.304 790.909 675.633 793.94C648.351 798.487 622.59 800 595.308 800C586.22 800 578.642 790.907 578.642 781.814Z" fill="#123458"/>
</g>
<defs>
<clipPath id="clip0_40_25">
<rect width="800" height="800" fill="white" transform="matrix(0 1 1 0 0 0)"/>
</clipPath>
</defs>
</svg>
